<mxfile host="app.diagrams.net" modified="2021-09-23T03:54:41.467Z" agent="5.0 (Macintosh; Intel Mac OS X 10_15_7) AppleWebKit/537.36 (KHTML, like Gecko) Chrome/93.0.4577.82 Safari/537.36" etag="eL3e5tf8b0iVOtPe4eym" version="15.3.0" type="github">
  <diagram id="7pLh0y11btY1tc2sNlG6" name="Page-1">
    <mxGraphModel dx="1298" dy="947" grid="1" gridSize="10" guides="1" tooltips="1" connect="1" arrows="1" fold="1" page="1" pageScale="1" pageWidth="827" pageHeight="1169" math="0" shadow="0">
      <root>
        <mxCell id="0" />
        <mxCell id="1" parent="0" />
        <mxCell id="R-9BC0vz824daVHEw6lP-1" value="DefaultRootUriHandler&lt;br&gt;（6个Interceptor：小程序、RN、云音乐协议转换拦截等）" style="rounded=0;whiteSpace=wrap;html=1;" vertex="1" parent="1">
          <mxGeometry x="550" y="190" width="180" height="60" as="geometry" />
        </mxCell>
        <mxCell id="R-9BC0vz824daVHEw6lP-2" value="PageAnnotationHandler&lt;br&gt;（NotExportedInterceptor：禁止外部访问来源访问）" style="rounded=0;whiteSpace=wrap;html=1;" vertex="1" parent="1">
          <mxGeometry x="140" y="420" width="200" height="60" as="geometry" />
        </mxCell>
        <mxCell id="R-9BC0vz824daVHEw6lP-3" value="FragmentTransactionHandler&lt;br&gt;（生成Fragment）" style="rounded=0;whiteSpace=wrap;html=1;" vertex="1" parent="1">
          <mxGeometry x="70" y="620" width="160" height="60" as="geometry" />
        </mxCell>
        <mxCell id="R-9BC0vz824daVHEw6lP-5" style="edgeStyle=orthogonalEdgeStyle;rounded=0;orthogonalLoop=1;jettySize=auto;html=1;exitX=1;exitY=0.5;exitDx=0;exitDy=0;" edge="1" parent="1" source="R-9BC0vz824daVHEw6lP-4">
          <mxGeometry relative="1" as="geometry">
            <mxPoint x="420" y="650" as="targetPoint" />
          </mxGeometry>
        </mxCell>
        <mxCell id="R-9BC0vz824daVHEw6lP-4" value="FragmentTransactionHandler" style="rounded=0;whiteSpace=wrap;html=1;" vertex="1" parent="1">
          <mxGeometry x="260" y="620" width="180" height="60" as="geometry" />
        </mxCell>
        <mxCell id="R-9BC0vz824daVHEw6lP-8" value="" style="endArrow=none;html=1;entryX=0.139;entryY=0.983;entryDx=0;entryDy=0;entryPerimeter=0;" edge="1" parent="1" target="R-9BC0vz824daVHEw6lP-1">
          <mxGeometry width="50" height="50" relative="1" as="geometry">
            <mxPoint x="260" y="410" as="sourcePoint" />
            <mxPoint x="320" y="350" as="targetPoint" />
          </mxGeometry>
        </mxCell>
        <mxCell id="R-9BC0vz824daVHEw6lP-9" value="" style="endArrow=none;html=1;exitX=0.44;exitY=1.083;exitDx=0;exitDy=0;exitPerimeter=0;" edge="1" parent="1" source="R-9BC0vz824daVHEw6lP-2">
          <mxGeometry width="50" height="50" relative="1" as="geometry">
            <mxPoint x="180" y="490" as="sourcePoint" />
            <mxPoint x="180" y="610" as="targetPoint" />
          </mxGeometry>
        </mxCell>
        <mxCell id="R-9BC0vz824daVHEw6lP-10" value="" style="endArrow=none;html=1;" edge="1" parent="1">
          <mxGeometry width="50" height="50" relative="1" as="geometry">
            <mxPoint x="250" y="490" as="sourcePoint" />
            <mxPoint x="340" y="600" as="targetPoint" />
          </mxGeometry>
        </mxCell>
        <mxCell id="R-9BC0vz824daVHEw6lP-11" value="UriAnnotationHandler&lt;br&gt;（解析schema://host）" style="rounded=0;whiteSpace=wrap;html=1;" vertex="1" parent="1">
          <mxGeometry x="550" y="400" width="200" height="60" as="geometry" />
        </mxCell>
        <mxCell id="R-9BC0vz824daVHEw6lP-12" value="PathHandler&lt;br&gt;（解析path）" style="rounded=0;whiteSpace=wrap;html=1;" vertex="1" parent="1">
          <mxGeometry x="480" y="620" width="120" height="60" as="geometry" />
        </mxCell>
        <mxCell id="R-9BC0vz824daVHEw6lP-13" value="&lt;span&gt;PathHandler&lt;/span&gt;&lt;br&gt;&lt;span&gt;（解析path）&lt;/span&gt;" style="rounded=1;whiteSpace=wrap;html=1;" vertex="1" parent="1">
          <mxGeometry x="750" y="610" width="120" height="60" as="geometry" />
        </mxCell>
        <mxCell id="R-9BC0vz824daVHEw6lP-16" value="" style="endArrow=none;html=1;entryX=0.355;entryY=1.017;entryDx=0;entryDy=0;entryPerimeter=0;" edge="1" parent="1" target="R-9BC0vz824daVHEw6lP-11">
          <mxGeometry width="50" height="50" relative="1" as="geometry">
            <mxPoint x="550" y="600" as="sourcePoint" />
            <mxPoint x="600" y="520" as="targetPoint" />
          </mxGeometry>
        </mxCell>
        <mxCell id="R-9BC0vz824daVHEw6lP-17" value="" style="endArrow=none;html=1;exitX=0.56;exitY=1.067;exitDx=0;exitDy=0;exitPerimeter=0;" edge="1" parent="1" source="R-9BC0vz824daVHEw6lP-11">
          <mxGeometry width="50" height="50" relative="1" as="geometry">
            <mxPoint x="660" y="540" as="sourcePoint" />
            <mxPoint x="790" y="600" as="targetPoint" />
          </mxGeometry>
        </mxCell>
        <mxCell id="R-9BC0vz824daVHEw6lP-18" value="ActivityClassNameHandler&lt;br&gt;（Activity的路由，使用Intent方式发出）" style="rounded=1;whiteSpace=wrap;html=1;" vertex="1" parent="1">
          <mxGeometry x="414" y="800" width="170" height="60" as="geometry" />
        </mxCell>
        <mxCell id="R-9BC0vz824daVHEw6lP-19" value="ActivityClassNameHandler" style="rounded=1;whiteSpace=wrap;html=1;" vertex="1" parent="1">
          <mxGeometry x="620" y="800" width="170" height="60" as="geometry" />
        </mxCell>
        <mxCell id="R-9BC0vz824daVHEw6lP-20" value="" style="endArrow=none;html=1;entryX=0.5;entryY=1;entryDx=0;entryDy=0;exitX=0.459;exitY=-0.05;exitDx=0;exitDy=0;exitPerimeter=0;" edge="1" parent="1" source="R-9BC0vz824daVHEw6lP-18" target="R-9BC0vz824daVHEw6lP-12">
          <mxGeometry width="50" height="50" relative="1" as="geometry">
            <mxPoint x="500" y="770" as="sourcePoint" />
            <mxPoint x="390" y="450" as="targetPoint" />
          </mxGeometry>
        </mxCell>
        <mxCell id="R-9BC0vz824daVHEw6lP-22" value="StartUriHandler&lt;br&gt;（最后的兜底，使用 `Intent`策略发送请求）" style="rounded=1;whiteSpace=wrap;html=1;" vertex="1" parent="1">
          <mxGeometry x="920" y="390" width="120" height="60" as="geometry" />
        </mxCell>
        <mxCell id="R-9BC0vz824daVHEw6lP-26" value="" style="endArrow=none;html=1;" edge="1" parent="1">
          <mxGeometry width="50" height="50" relative="1" as="geometry">
            <mxPoint x="690" y="790" as="sourcePoint" />
            <mxPoint x="540" y="680" as="targetPoint" />
          </mxGeometry>
        </mxCell>
        <mxCell id="R-9BC0vz824daVHEw6lP-27" value="" style="endArrow=none;html=1;" edge="1" parent="1" source="R-9BC0vz824daVHEw6lP-11">
          <mxGeometry width="50" height="50" relative="1" as="geometry">
            <mxPoint x="550" y="500" as="sourcePoint" />
            <mxPoint x="648" y="250" as="targetPoint" />
          </mxGeometry>
        </mxCell>
        <mxCell id="R-9BC0vz824daVHEw6lP-28" value="" style="endArrow=none;html=1;" edge="1" parent="1" source="R-9BC0vz824daVHEw6lP-1" target="R-9BC0vz824daVHEw6lP-22">
          <mxGeometry width="50" height="50" relative="1" as="geometry">
            <mxPoint x="730" y="260" as="sourcePoint" />
            <mxPoint x="600" y="450" as="targetPoint" />
          </mxGeometry>
        </mxCell>
      </root>
    </mxGraphModel>
  </diagram>
</mxfile>
